# xmcd
#
# Track frame offsets:
#	150
#	10927
#	26875
#	38548
#	50983
#	61967
#	75549
#	85967
#	101873
#	123626
#	133675
#	148707
#	159876
#	170512
#	185620
#	201319
#	213645
#	261852
#	281269
#	310547
#
# Disc length: 4448 seconds
#
# Revision: 2
# Processed by: cddbd v1.5.1PL2 Copyright (c) Steve Scherf et al.
# Submitted via: EasyCDDAExtractor 9.1.1.2
#
DISCID=23115e14
DTITLE=Various Artist - PLAYBACK - CD 2
DYEAR=1900
DGENRE=
TTITLE0=KARL ZERO and THE WAILERS - DON'T TOUCH ME TOMATO
TTITLE1=PALAST ORCHESTER - MAMBO No. 5 (A LITTLE BIT OF)
TTITLE2=CYNDI LAUPER - MY BABY JUST CARES FOR ME
TTITLE3=THE McCOYS - FEVER
TTITLE4=YO-YO MA BOBBY McFERRIN - HUSH LITTLE BABY
TTITLE5=WILLIE NELSON - I LOVE THE LIFE I LIVE
TTITLE6=RASPUTINA - WHY DON'T YOU DO RIGHT
TTITLE7=TUCK and PATTI - YEH YEH
TTITLE8=MONGO SANTAMARIA - GREEN ONIONS
TTITLE9=MAC DAVIS - A LITTLE LESS CONVERSATION
TTITLE10=LOS REBELDES - TEQUILA
TTITLE11=STRANGLERS - ALL DAY AND ALL OF THE NIGHT
TTITLE12=JOEY RAMONE - WHAT A WONDERFUL WORLD
TTITLE13=JOE STRUMMER and THE MESCALEROS - REDEMPTION SONG
TTITLE14=COWBOY JUNKIES - SWEET JANE
TTITLE15=AZTEK CAMERA - JUMP
TTITLE16=THE UNDISPUTED TRUTH - BALL OF CONFUSION (THAT'S WHAT THE WORLD IS TO
TTITLE16=DAY)
TTITLE17=FUGEES - NO WOMAN, NO CRY
TTITLE18=JESTOFUNK - THE GHETTO
TTITLE19=ATHINA ROUTSI - OSSE OLHAR (HEROKROTIMA)
EXTD=
EXTT0=
EXTT1=
EXTT2=
EXTT3=
EXTT4=
EXTT5=
EXTT6=
EXTT7=
EXTT8=
EXTT9=
EXTT10=
EXTT11=
EXTT12=
EXTT13=
EXTT14=
EXTT15=
EXTT16=
EXTT17=
EXTT18=
EXTT19=
PLAYORDER=
